<?xml version="1.0" encoding="iso-8859-1"?>
<!-- Uploaded to: SVG Repo, www.svgrepo.com, Generator: SVG Repo Mixer Tools -->
<svg height="800px" width="800px" version="1.1" id="Layer_1" xmlns="http://www.w3.org/2000/svg" xmlns:xlink="http://www.w3.org/1999/xlink" 
	 viewBox="0 0 284.014 284.014" xml:space="preserve">
<g id="XMLID_28_">
	<g>
		<path style="fill:#16A085;" d="M227.157,84.284c4.69,2.23,6.7,7.86,4.47,12.55l-2.88,6.06l-145.69-69.19l2.88-6.06
			c2.23-4.7,7.87-6.7,12.56-4.47L227.157,84.284z"/>
		<path style="fill:#1ABC9C;" d="M181.687,102.724l-12.24,146.88c-0.67,8.08-7.55,14.41-15.66,14.41h-73.54
			c-8.1,0-14.98-6.33-15.65-14.41l-12.24-146.88H181.687z"/>
		<path d="M235.737,66.214c14.65,6.96,20.91,24.55,13.95,39.2l-7.16,15.09c-1.72,3.61-5.3,5.72-9.04,5.72
			c-1.44,0-2.9-0.31-4.29-0.97l-28.2-13.4l-11.62,139.41c-1.53,18.36-17.16,32.75-35.59,32.75h-73.54
			c-18.42,0-34.05-14.39-35.58-32.75l-13.15-157.71c-0.23-2.78,0.72-5.54,2.61-7.6s4.56-3.23,7.36-3.23h98.18l-74.22-35.25
			c-2.39-1.13-4.24-3.18-5.13-5.68c-0.89-2.49-0.75-5.24,0.39-7.64l7.17-15.09c6.96-14.66,24.54-20.92,39.2-13.96l28,13.3l1.46-3.05
			c3.07-6.48,8.49-11.38,15.25-13.79c6.76-2.4,14.05-2.03,20.53,1.05l24.13,11.45c13.37,6.36,19.09,22.41,12.74,35.79l-1.46,3.06
			L235.737,66.214z M231.627,96.834c2.23-4.69,0.22-10.32-4.47-12.55l-128.66-61.11c-4.69-2.23-10.33-0.23-12.56,4.47l-2.88,6.06
			l145.69,69.19L231.627,96.834z M191.117,41.274c1.62-3.42,0.16-7.52-3.26-9.14l-24.12-11.46c-1.65-0.78-3.51-0.88-5.24-0.26
			c-1.73,0.61-3.11,1.86-3.9,3.52l-1.45,3.05l36.52,17.35L191.117,41.274z M169.447,249.604l12.24-146.88H52.357l12.24,146.88
			c0.67,8.08,7.55,14.41,15.65,14.41h73.54C161.897,264.014,168.777,257.684,169.447,249.604z"/>
	</g>
</g>
</svg>